<?xml version="1.0" encoding="UTF-8"?><svg id="Livello_1" xmlns="http://www.w3.org/2000/svg" viewBox="0 0 283.41 277.91"><defs><style>.cls-1{fill:#056cee;}.cls-2{fill:#312f73;}.cls-3{fill:#3dd58c;}</style></defs><rect class="cls-3" x="136.24" y="116.19" width="45.98" height="45.98"/><path class="cls-2" d="m77.02,209.94V67.97h161.13l25.89-44.96-.04-.04H56.4c-11.37,0-20.62,10.09-20.62,22.5v186.96c0,12.41,9.25,22.5,20.62,22.5h201.69c2.09,0,4.13-.35,6.07-.99l-25.34-44H77.02Z"/><path class="cls-1" d="m202.41,91.52h-86.36c-2.47,0-4.48,2.01-4.48,4.48v86.36c0,2.47,2.01,4.48,4.48,4.48h86.36c2.47,0,4.48-2.01,4.48-4.48v-86.36c0-2.47-2.01-4.48-4.48-4.48m-22.34,70.65h-41.68c-1.19,0-2.15-.96-2.15-2.15v-41.68c0-1.19.96-2.15,2.15-2.15h41.68c1.19,0,2.15.96,2.15,2.15v41.68c0,1.19-.96,2.15-2.15,2.15"/></svg>
